<svg width="20" height="20" viewBox="0 0 20 20" fill="none" xmlns="http://www.w3.org/2000/svg">
<path d="M12.8459 0.00559262C11.5164 0.0046768 10.213 0.373793 9.08207 1.07148C7.95117 1.76916 7.03763 2.76776 6.4441 3.95507C5.85057 5.14238 5.60055 6.47137 5.72216 7.79268C5.84377 9.11398 6.33217 10.3753 7.13249 11.4348L5.60742 12.9624L7.0568 14.4089L8.59869 12.8701C9.50755 13.5411 10.5629 13.9874 11.6781 14.1724C12.7934 14.3575 13.9367 14.2758 15.0142 13.9343C16.0917 13.5928 17.0726 13.0012 17.8766 12.2079C18.6805 11.4146 19.2844 10.4424 19.6388 9.37097C19.9932 8.29957 20.0879 7.15956 19.9152 6.04453C19.7425 4.92951 19.3073 3.87125 18.6452 2.95666C17.9832 2.04207 17.1133 1.29721 16.1069 0.783244C15.1005 0.269274 13.9863 0.000852129 12.8557 0L12.8459 0.00559262ZM12.8459 12.2C11.8437 12.2 10.864 11.9034 10.0307 11.3477C9.19741 10.792 8.54794 10.0022 8.16441 9.07817C7.78088 8.1541 7.68054 7.13729 7.87606 6.1563C8.07158 5.17532 8.55419 4.27423 9.26285 3.56698C9.97152 2.85973 10.8744 2.37809 11.8574 2.18296C12.8403 1.98783 13.8592 2.08798 14.7851 2.47074C15.711 2.8535 16.5024 3.50168 17.0592 4.33332C17.616 5.16496 17.9132 6.14271 17.9132 7.14291C17.9132 8.48414 17.3793 9.77042 16.429 10.7188C15.4787 11.6672 14.1898 12.2 12.8459 12.2Z" fill="#B6C8A9"/>
<path d="M12.8459 0.00559262C11.5164 0.0046768 10.213 0.373793 9.08207 1.07148C7.95117 1.76916 7.03763 2.76776 6.4441 3.95507C5.85057 5.14238 5.60055 6.47137 5.72216 7.79268C5.84377 9.11398 6.33217 10.3753 7.13249 11.4348L5.60742 12.9624L7.0568 14.4089L8.59869 12.8701C9.50755 13.5411 10.5629 13.9874 11.6781 14.1724C12.7934 14.3575 13.9367 14.2758 15.0142 13.9343C16.0917 13.5928 17.0726 13.0012 17.8766 12.2079C18.6805 11.4146 19.2844 10.4424 19.6388 9.37097C19.9932 8.29957 20.0879 7.15956 19.9152 6.04453C19.7425 4.92951 19.3073 3.87125 18.6452 2.95666C17.9832 2.04207 17.1133 1.29721 16.1069 0.783244C15.1005 0.269274 13.9863 0.000852129 12.8557 0L12.8459 0.00559262ZM12.8459 12.2C11.8437 12.2 10.864 11.9034 10.0307 11.3477C9.19741 10.792 8.54794 10.0022 8.16441 9.07817C7.78088 8.1541 7.68054 7.13729 7.87606 6.1563C8.07158 5.17532 8.55419 4.27423 9.26285 3.56698C9.97152 2.85973 10.8744 2.37809 11.8574 2.18296C12.8403 1.98783 13.8592 2.08798 14.7851 2.47074C15.711 2.8535 16.5024 3.50168 17.0592 4.33332C17.616 5.16496 17.9132 6.14271 17.9132 7.14291C17.9132 8.48414 17.3793 9.77042 16.429 10.7188C15.4787 11.6672 14.1898 12.2 12.8459 12.2Z" fill="#848484"/>
<path d="M4.153 14.4082L0 18.5529L1.45008 20L5.60308 15.8553L4.153 14.4082Z" fill="#848484"/>
</svg>
